<svg width="60" height="61" viewBox="0 0 60 61" fill="none" xmlns="http://www.w3.org/2000/svg">
<rect x="0.739357" y="1.30747" width="58.1823" height="58.1823" rx="29.0911" fill="#FDC000"/>
<rect x="0.739357" y="1.30747" width="58.1823" height="58.1823" rx="29.0911" stroke="#242424" stroke-width="1.47871"/>
<path fill-rule="evenodd" clip-rule="evenodd" d="M10.6145 16.673C10.6145 15.0558 11.9255 13.7449 13.5426 13.7449H46.0398C47.657 13.7449 48.968 15.0558 48.968 16.673V19.1808H32.3926V44.2275C32.3926 45.693 31.2045 46.8811 29.739 46.8811C28.2734 46.8811 27.0853 45.693 27.0853 44.2275V19.1808H10.6145V16.673ZM32.9416 29.5867C32.9416 28.1211 34.1297 26.933 35.5953 26.933H46.2098C47.6754 26.933 48.8634 28.1211 48.8634 29.5867C48.8634 31.0522 47.6754 32.2403 46.2098 32.2403H35.5953C34.1297 32.2403 32.9416 31.0522 32.9416 29.5867Z" fill="#242424"/>
</svg>
