<svg width="219" height="47" viewBox="0 0 219 47" fill="none" xmlns="http://www.w3.org/2000/svg">
<path d="M17.5844 46C15.6945 46 13.9191 45.6468 12.2583 44.9405C10.5974 44.2151 9.13704 43.2319 7.87709 41.9911C6.63623 40.7311 5.65308 39.2707 4.92766 37.6099C4.22132 35.949 3.86815 34.1737 3.86815 32.2837V23.1777H0.0596696V15.3889H3.86815V3.13307H11.6569V15.3889H23.5119V23.1777H11.6569V32.2837C11.6569 33.1046 11.8097 33.8778 12.1151 34.6032C12.4205 35.3095 12.8405 35.9299 13.375 36.4645C13.9096 36.999 14.5395 37.4285 15.265 37.7531C15.9904 38.0585 16.7636 38.2112 17.5844 38.2112H23.5119V46H17.5844ZM37.8582 46H30.0407V23.1205H26.2323V15.3317H30.0407V13.8713C30.0407 11.9814 30.3939 10.206 31.1003 8.54513C31.8257 6.88428 32.8088 5.44298 34.0497 4.22121C35.3096 2.98035 36.77 2.00675 38.4309 1.30041C40.0917 0.574989 41.8671 0.212276 43.757 0.212276H49.6272V8.00106H43.757C42.9171 8.00106 42.1344 8.15378 41.4089 8.45922C40.7026 8.74557 40.0822 9.15601 39.5476 9.69054C39.0322 10.206 38.6218 10.8264 38.3163 11.5518C38.0109 12.2582 37.8582 13.0313 37.8582 13.8713V15.3317H47.451V23.1205H37.8582V46ZM80.2383 30.3938C80.2383 32.6846 79.8279 34.8227 79.007 36.8081C78.1861 38.7744 77.0693 40.4829 75.6567 41.9338C74.244 43.3656 72.5831 44.5014 70.6741 45.3414C68.7842 46.1623 66.7511 46.5727 64.5748 46.5727C62.4176 46.5727 60.3845 46.1623 58.4755 45.3414C56.5856 44.5014 54.9248 43.3656 53.493 41.9338C52.0803 40.4829 50.9636 38.7744 50.1427 36.8081C49.3218 34.8227 48.9114 32.6846 48.9114 30.3938C48.9114 28.0648 49.3218 25.9076 50.1427 23.9222C50.9636 21.9369 52.0803 20.2283 53.493 18.7965C54.9248 17.3457 56.5856 16.2098 58.4755 15.3889C60.3845 14.5681 62.4176 14.1576 64.5748 14.1576C66.7511 14.1576 68.7842 14.549 70.6741 15.3317C72.5831 16.0953 74.244 17.193 75.6567 18.6247C77.0693 20.0374 78.1861 21.746 79.007 23.7504C79.8279 25.7358 80.2383 27.9503 80.2383 30.3938ZM72.3636 30.3938C72.3636 29.1339 72.1536 27.998 71.7336 26.9862C71.3327 25.9553 70.7791 25.0772 70.0728 24.3518C69.3665 23.6073 68.536 23.0441 67.5815 22.6623C66.6461 22.2614 65.6439 22.061 64.5748 22.061C63.5058 22.061 62.494 22.2614 61.5395 22.6623C60.6041 23.0441 59.7832 23.6073 59.0769 24.3518C58.3896 25.0772 57.8456 25.9553 57.4447 26.9862C57.0438 27.998 56.8433 29.1339 56.8433 30.3938C56.8433 31.5774 57.0438 32.6751 57.4447 33.6869C57.8456 34.6986 58.3896 35.5768 59.0769 36.3213C59.7832 37.0658 60.6041 37.6576 61.5395 38.0967C62.494 38.5167 63.5058 38.7267 64.5748 38.7267C65.6439 38.7267 66.6461 38.5262 67.5815 38.1253C68.536 37.7244 69.3665 37.1613 70.0728 36.4358C70.7791 35.7104 71.3327 34.8323 71.7336 33.8014C72.1536 32.7705 72.3636 31.6347 72.3636 30.3938ZM114.2 30.3938C114.2 32.6846 113.789 34.8227 112.968 36.8081C112.147 38.7744 111.031 40.4829 109.618 41.9338C108.205 43.3656 106.545 44.5014 104.636 45.3414C102.746 46.1623 100.712 46.5727 98.5362 46.5727C96.379 46.5727 94.3459 46.1623 92.4369 45.3414C90.547 44.5014 88.8861 43.3656 87.4544 41.9338C86.0417 40.4829 84.9249 38.7744 84.1041 36.8081C83.2832 34.8227 82.8727 32.6846 82.8727 30.3938C82.8727 28.0648 83.2832 25.9076 84.1041 23.9222C84.9249 21.9369 86.0417 20.2283 87.4544 18.7965C88.8861 17.3457 90.547 16.2098 92.4369 15.3889C94.3459 14.5681 96.379 14.1576 98.5362 14.1576C100.712 14.1576 102.746 14.549 104.636 15.3317C106.545 16.0953 108.205 17.193 109.618 18.6247C111.031 20.0374 112.147 21.746 112.968 23.7504C113.789 25.7358 114.2 27.9503 114.2 30.3938ZM106.325 30.3938C106.325 29.1339 106.115 27.998 105.695 26.9862C105.294 25.9553 104.741 25.0772 104.034 24.3518C103.328 23.6073 102.497 23.0441 101.543 22.6623C100.607 22.2614 99.6053 22.061 98.5362 22.061C97.4672 22.061 96.4554 22.2614 95.5009 22.6623C94.5655 23.0441 93.7446 23.6073 93.0382 24.3518C92.351 25.0772 91.8069 25.9553 91.406 26.9862C91.0051 27.998 90.8047 29.1339 90.8047 30.3938C90.8047 31.5774 91.0051 32.6751 91.406 33.6869C91.8069 34.6986 92.351 35.5768 93.0382 36.3213C93.7446 37.0658 94.5655 37.6576 95.5009 38.0967C96.4554 38.5167 97.4672 38.7267 98.5362 38.7267C99.6053 38.7267 100.607 38.5262 101.543 38.1253C102.497 37.7244 103.328 37.1613 104.034 36.4358C104.741 35.7104 105.294 34.8323 105.695 33.8014C106.115 32.7705 106.325 31.6347 106.325 30.3938ZM148.161 46H146.271L143.236 41.7906C142.491 42.4588 141.699 43.0888 140.859 43.6805C140.038 44.2533 139.17 44.7591 138.253 45.1982C137.337 45.6182 136.392 45.9523 135.418 46.2004C134.464 46.4486 133.49 46.5727 132.498 46.5727C130.34 46.5727 128.307 46.1718 126.398 45.37C124.508 44.5491 122.848 43.4228 121.416 41.9911C120.003 40.5402 118.886 38.8316 118.065 36.8654C117.245 34.88 116.834 32.7228 116.834 30.3938C116.834 28.0839 117.245 25.9363 118.065 23.9509C118.886 21.9655 120.003 20.2474 121.416 18.7965C122.848 17.3457 124.508 16.2098 126.398 15.3889C128.307 14.5681 130.34 14.1576 132.498 14.1576C133.185 14.1576 133.891 14.2149 134.617 14.3294C135.361 14.444 136.077 14.6349 136.764 14.9021C137.471 15.1503 138.129 15.4844 138.74 15.9044C139.351 16.3244 139.866 16.8398 140.286 17.4507V3.13307H148.161V46ZM140.286 30.3938C140.286 29.3248 140.076 28.2939 139.656 27.3012C139.255 26.2894 138.702 25.4017 137.996 24.6381C137.289 23.8554 136.459 23.235 135.504 22.7768C134.569 22.2996 133.567 22.061 132.498 22.061C131.429 22.061 130.417 22.2519 129.462 22.6337C128.527 23.0155 127.706 23.5691 127 24.2945C126.312 25.0008 125.768 25.8694 125.367 26.9003C124.967 27.9312 124.766 29.0957 124.766 30.3938C124.766 31.5201 124.967 32.5892 125.367 33.6009C125.768 34.6127 126.312 35.5004 127 36.264C127.706 37.0276 128.527 37.629 129.462 38.068C130.417 38.5071 131.429 38.7267 132.498 38.7267C133.567 38.7267 134.569 38.4976 135.504 38.0394C136.459 37.5622 137.289 36.9417 137.996 36.1781C138.702 35.3954 139.255 34.5077 139.656 33.515C140.076 32.5033 140.286 31.4629 140.286 30.3938ZM184.843 30.3938C184.843 32.7992 184.432 34.9945 183.611 36.9799C182.791 38.9653 181.674 40.6738 180.261 42.1056C178.848 43.5183 177.188 44.616 175.279 45.3987C173.389 46.1814 171.356 46.5727 169.179 46.5727C167.022 46.5727 164.989 46.1718 163.08 45.37C161.19 44.5682 159.529 43.4515 158.097 42.0197C156.685 40.5879 155.568 38.8889 154.747 36.9226C153.926 34.9373 153.516 32.761 153.516 30.3938V3.13307H161.362V17.4507C161.782 16.9162 162.288 16.4389 162.88 16.0189C163.49 15.5989 164.14 15.2553 164.827 14.9881C165.533 14.7208 166.259 14.5203 167.003 14.3867C167.748 14.234 168.473 14.1576 169.179 14.1576C171.356 14.1576 173.389 14.5681 175.279 15.3889C177.188 16.1907 178.848 17.3171 180.261 18.7679C181.674 20.2188 182.791 21.9369 183.611 23.9222C184.432 25.8885 184.843 28.0457 184.843 30.3938ZM176.968 30.3938C176.968 29.2102 176.758 28.1125 176.338 27.1008C175.937 26.0699 175.384 25.1822 174.677 24.4377C173.971 23.6932 173.141 23.1109 172.186 22.6909C171.251 22.2709 170.248 22.061 169.179 22.061C168.11 22.061 167.098 22.2996 166.144 22.7768C165.209 23.235 164.388 23.8554 163.681 24.6381C162.975 25.4017 162.421 26.2894 162.021 27.3012C161.62 28.2939 161.419 29.3248 161.419 30.3938C161.419 31.5774 161.62 32.6751 162.021 33.6869C162.421 34.6986 162.975 35.5768 163.681 36.3213C164.388 37.0658 165.209 37.6576 166.144 38.0967C167.098 38.5167 168.11 38.7267 169.179 38.7267C170.248 38.7267 171.251 38.5167 172.186 38.0967C173.141 37.6576 173.971 37.0658 174.677 36.3213C175.384 35.5768 175.937 34.6986 176.338 33.6869C176.758 32.6751 176.968 31.5774 176.968 30.3938ZM218.833 46H216.943L213.908 41.7906C213.163 42.4588 212.371 43.0888 211.531 43.6805C210.71 44.2533 209.841 44.7591 208.925 45.1982C208.009 45.6182 207.064 45.9523 206.09 46.2004C205.136 46.4486 204.162 46.5727 203.169 46.5727C201.012 46.5727 198.979 46.1718 197.07 45.37C195.18 44.5491 193.519 43.4228 192.087 41.9911C190.675 40.5402 189.558 38.8316 188.737 36.8654C187.916 34.88 187.506 32.7228 187.506 30.3938C187.506 28.0839 187.916 25.9363 188.737 23.9509C189.558 21.9655 190.675 20.2474 192.087 18.7965C193.519 17.3457 195.18 16.2098 197.07 15.3889C198.979 14.5681 201.012 14.1576 203.169 14.1576C203.857 14.1576 204.563 14.2149 205.288 14.3294C206.033 14.444 206.749 14.6349 207.436 14.9021C208.142 15.1503 208.801 15.4844 209.412 15.9044C210.023 16.3244 210.538 16.8398 210.958 17.4507V3.13307H218.833V46ZM210.958 30.3938C210.958 29.3248 210.748 28.2939 210.328 27.3012C209.927 26.2894 209.374 25.4017 208.667 24.6381C207.961 23.8554 207.131 23.235 206.176 22.7768C205.241 22.2996 204.238 22.061 203.169 22.061C202.1 22.061 201.088 22.2519 200.134 22.6337C199.199 23.0155 198.378 23.5691 197.671 24.2945C196.984 25.0008 196.44 25.8694 196.039 26.9003C195.638 27.9312 195.438 29.0957 195.438 30.3938C195.438 31.5201 195.638 32.5892 196.039 33.6009C196.44 34.6127 196.984 35.5004 197.671 36.264C198.378 37.0276 199.199 37.629 200.134 38.068C201.088 38.5071 202.1 38.7267 203.169 38.7267C204.238 38.7267 205.241 38.4976 206.176 38.0394C207.131 37.5622 207.961 36.9417 208.667 36.1781C209.374 35.3954 209.927 34.5077 210.328 33.515C210.748 32.5033 210.958 31.4629 210.958 30.3938Z" fill="#242424"/>
</svg>
